{
  "accessors": [
    {
      "name": "log_4_1_0_positions",
      "componentType": 5126,
      "count": 180,
      "min": [
        -1.9375,
        0,
        -0.25
      ],
      "max": [
        1.9375,
        0.5,
        0.25
      ],
      "type": "VEC3",
      "bufferView": 0,
      "byteOffset": 0
    },
    {
      "name": "log_4_1_0_normals",
      "componentType": 5126,
      "count": 180,
      "min": [
        -1,
        -1,
        -1
      ],
      "max": [
        1,
        1,
        1
      ],
      "type": "VEC3",
      "bufferView": 1,
      "byteOffset": 0
    },
    {
      "name": "log_4_1_0_texcoords",
      "componentType": 5126,
      "count": 180,
      "min": [
        0.015625,
        0.1875
      ],
      "max": [
        0.984375,
        0.984375
      ],
      "type": "VEC2",
      "bufferView": 2,
      "byteOffset": 0
    },
    {
      "name": "log_4_1_0_indices",
      "componentType": 5123,
      "count": 180,
      "min": [
        0
      ],
      "max": [
        179
      ],
      "type": "SCALAR",
      "bufferView": 3,
      "byteOffset": 0
    }
  ],
  "asset": {
    "generator": "obj2gltf",
    "version": "2.0"
  },
  "buffers": [
    {
      "name": "0",
      "byteLength": 6120,
      "uri": "data:application/octet-stream;base64,"
    }
  ],
  "bufferViews": [
    {
      "name": "bufferView_0",
      "buffer": 0,
      "byteLength": 2160,
      "byteOffset": 0,
      "byteStride": 12,
      "target": 34962
    },
    {
      "name": "bufferView_1",
      "buffer": 0,
      "byteLength": 2160,
      "byteOffset": 2160,
      "byteStride": 12,
      "target": 34962
    },
    {
      "name": "bufferView_2",
      "buffer": 0,
      "byteLength": 1440,
      "byteOffset": 4320,
      "byteStride": 8,
      "target": 34962
    },
    {
      "name": "bufferView_3",
      "buffer": 0,
      "byteLength": 360,
      "byteOffset": 5760,
      "target": 34963
    }
  ],
  "materials": [
    {
      "name": "log_4-tex.tex",
      "pbrMetallicRoughness": {
        "baseColorFactor": [
          0.5,
          0.5,
          0.5,
          1
        ],
        "metallicFactor": 0,
        "roughnessFactor": 1
      },
      "emissiveFactor": [
        0,
        0,
        0
      ],
      "alphaMode": "OPAQUE",
      "doubleSided": false
    }
  ],
  "meshes": [
    {
      "name": "log_4_1",
      "primitives": [
        {
          "attributes": {
            "POSITION": 0,
            "NORMAL": 1,
            "TEXCOORD_0": 2
          },
          "indices": 3,
          "material": 0,
          "mode": 4
        }
      ]
    }
  ],
  "nodes": [
    {
      "name": "log_4",
      "mesh": 0
    }
  ],
  "scene": 0,
  "scenes": [
    {
      "nodes": [
        0
      ]
    }
  ]
}
