{
  "asset": {
    "generator": "glTF-Transform v4.4.0",
    "version": "2.0",
    "extras": {
      "author": "Atlas (https://sketchfab.com/Atlasmodels)",
      "license": "CC-BY-4.0 (http://creativecommons.org/licenses/by/4.0/)",
      "source": "https://sketchfab.com/3d-models/goose-low-poly-3318893e41fc4d2f9f497776da95c13a",
      "title": "Goose Low Poly"
    }
  },
  "accessors": [
    {
      "type": "VEC3",
      "componentType": 5126,
      "count": 1469,
      "max": [
        2.5898194313049316,
        2.307478666305542,
        2.066420793533325
      ],
      "min": [
        -6.882899761199951,
        -6.078766822814941,
        -2.066420793533325
      ],
      "bufferView": 0,
      "byteOffset": 0
    },
    {
      "type": "VEC3",
      "componentType": 5126,
      "count": 1469,
      "bufferView": 0,
      "byteOffset": 12
    },
    {
      "type": "VEC2",
      "componentType": 5126,
      "count": 1469,
      "bufferView": 0,
      "byteOffset": 24
    },
    {
      "type": "SCALAR",
      "componentType": 5125,
      "count": 2244,
      "bufferView": 1,
      "byteOffset": 0
    },
    {
      "type": "SCALAR",
      "componentType": 5125,
      "count": 1002,
      "bufferView": 1,
      "byteOffset": 8976
    },
    {
      "type": "SCALAR",
      "componentType": 5125,
      "count": 48,
      "bufferView": 1,
      "byteOffset": 12984
    },
    {
      "type": "VEC3",
      "componentType": 5126,
      "count": 670,
      "max": [
        4.704573631286621,
        2.7384657859802246,
        1.4442532062530518
      ],
      "min": [
        -6.56586217880249,
        -1.8759925365447998,
        -1.605441689491272
      ],
      "bufferView": 2,
      "byteOffset": 0
    },
    {
      "type": "VEC3",
      "componentType": 5126,
      "count": 670,
      "bufferView": 2,
      "byteOffset": 12
    },
    {
      "type": "VEC2",
      "componentType": 5126,
      "count": 670,
      "bufferView": 2,
      "byteOffset": 24
    },
    {
      "type": "VEC3",
      "componentType": 5126,
      "count": 32,
      "max": [
        -6.433974742889404,
        1.3726640939712524,
        0.506034255027771
      ],
      "min": [
        -6.650757312774658,
        1.1809762716293335,
        -0.506034255027771
      ],
      "bufferView": 3,
      "byteOffset": 0
    },
    {
      "type": "VEC3",
      "componentType": 5126,
      "count": 32,
      "bufferView": 3,
      "byteOffset": 12
    },
    {
      "type": "VEC2",
      "componentType": 5126,
      "count": 32,
      "bufferView": 3,
      "byteOffset": 24
    }
  ],
  "bufferViews": [
    {
      "buffer": 0,
      "byteOffset": 0,
      "byteLength": 47008,
      "byteStride": 32,
      "target": 34962
    },
    {
      "buffer": 0,
      "byteOffset": 47008,
      "byteLength": 13176,
      "target": 34963
    },
    {
      "buffer": 0,
      "byteOffset": 60184,
      "byteLength": 21440,
      "byteStride": 32,
      "target": 34962
    },
    {
      "buffer": 0,
      "byteOffset": 81624,
      "byteLength": 1024,
      "byteStride": 32,
      "target": 34962
    }
  ],
  "buffers": [
    {
      "uri": "goose_split.bin",
      "byteLength": 82648
    }
  ],
  "materials": [
    {
      "name": "Material.001",
      "doubleSided": true,
      "pbrMetallicRoughness": {
        "baseColorFactor": [
          0.8,
          0.8,
          0.8,
          1
        ],
        "roughnessFactor": 0.8211145618000169,
        "metallicFactor": 0
      }
    },
    {
      "name": "Material.002",
      "doubleSided": true,
      "pbrMetallicRoughness": {
        "baseColorFactor": [
          0.8,
          0.160281,
          0.013858,
          1
        ],
        "roughnessFactor": 0.9361125149872536,
        "metallicFactor": 0
      }
    },
    {
      "name": "Material.003",
      "doubleSided": true,
      "pbrMetallicRoughness": {
        "baseColorFactor": [
          0.00273198,
          0.0035402,
          0.00637025,
          1
        ],
        "roughnessFactor": 0.999201119537968,
        "metallicFactor": 0
      }
    }
  ],
  "meshes": [
    {
      "name": "Plane_Material.001_0",
      "primitives": [
        {
          "attributes": {
            "NORMAL": 1,
            "POSITION": 0,
            "TEXCOORD_0": 2
          },
          "mode": 4,
          "material": 0,
          "indices": 3
        }
      ]
    },
    {
      "name": "Plane_Material.002_0",
      "primitives": [
        {
          "attributes": {
            "NORMAL": 7,
            "POSITION": 6,
            "TEXCOORD_0": 8
          },
          "mode": 4,
          "material": 1,
          "indices": 4
        }
      ]
    },
    {
      "name": "Plane_Material.003_0",
      "primitives": [
        {
          "attributes": {
            "NORMAL": 10,
            "POSITION": 9,
            "TEXCOORD_0": 11
          },
          "mode": 4,
          "material": 2,
          "indices": 5
        }
      ]
    }
  ],
  "nodes": [
    {
      "name": "Plane_Material.001_0",
      "translation": [
        -44.592116247921396,
        -39.348680682256,
        40.85856570297386
      ],
      "rotation": [
        -0.6467318000000085,
        0.6592745307637035,
        0.2858986161941282,
        -0.25565025564886545
      ],
      "scale": [
        37.2830768227726,
        37.28307680368012,
        37.28307649878512
      ],
      "mesh": 0
    },
    {
      "name": "Plane_Material.002_0",
      "translation": [
        -44.592116247921396,
        -39.348680682256,
        40.85856570297386
      ],
      "rotation": [
        -0.6467318000000085,
        0.6592745307637035,
        0.2858986161941282,
        -0.25565025564886545
      ],
      "scale": [
        37.2830768227726,
        37.28307680368012,
        37.28307649878512
      ],
      "mesh": 1
    },
    {
      "name": "Plane_Material.003_0",
      "translation": [
        -44.592116247921396,
        -39.348680682256,
        40.85856570297386
      ],
      "rotation": [
        -0.6467318000000085,
        0.6592745307637035,
        0.2858986161941282,
        -0.25565025564886545
      ],
      "scale": [
        37.2830768227726,
        37.28307680368012,
        37.28307649878512
      ],
      "mesh": 2
    }
  ],
  "scenes": [
    {
      "name": "Sketchfab_Scene",
      "nodes": [
        0,
        1,
        2
      ]
    }
  ],
  "scene": 0
}